<mxfile host="Electron" agent="Mozilla/5.0 (Macintosh; Intel Mac OS X 10_15_7) AppleWebKit/537.36 (KHTML, like Gecko) draw.io/25.0.2 Chrome/128.0.6613.186 Electron/32.2.5 Safari/537.36" version="25.0.2">
  <diagram name="Page-1" id="_gRGWOFDqU3hSQWJzQTY">
    <mxGraphModel dx="482" dy="1436" grid="1" gridSize="10" guides="1" tooltips="1" connect="1" arrows="1" fold="1" page="1" pageScale="1" pageWidth="850" pageHeight="1100" background="none" math="1" shadow="0">
      <root>
        <mxCell id="0" />
        <mxCell id="1" parent="0" />
        <mxCell id="0vuY_zB4OoL36OcjDB_b-94" value="" style="rounded=1;whiteSpace=wrap;html=1;arcSize=7;fillColor=#f5f5f5;fontColor=#333333;strokeColor=#666666;" parent="1" vertex="1">
          <mxGeometry x="319.27000000000004" y="-1030" width="390.03" height="70" as="geometry" />
        </mxCell>
        <mxCell id="SLpwjg63hdyZRQU6lq9K-11" style="edgeStyle=orthogonalEdgeStyle;rounded=0;orthogonalLoop=1;jettySize=auto;html=1;entryX=0;entryY=0.5;entryDx=0;entryDy=0;" parent="1" source="SLpwjg63hdyZRQU6lq9K-1" target="SLpwjg63hdyZRQU6lq9K-2" edge="1">
          <mxGeometry relative="1" as="geometry" />
        </mxCell>
        <mxCell id="SLpwjg63hdyZRQU6lq9K-1" value="&lt;span&gt;1. Tiền&lt;/span&gt;&lt;div&gt;&lt;span&gt;xử lý&lt;/span&gt;&lt;/div&gt;" style="rounded=1;whiteSpace=wrap;html=1;fillColor=#e1d5e7;strokeColor=#9673a6;fontFamily=SVN-Segoe UI;fontStyle=1" parent="1" vertex="1">
          <mxGeometry x="169.5" y="-1010" width="59.8" height="40" as="geometry" />
        </mxCell>
        <mxCell id="SLpwjg63hdyZRQU6lq9K-12" style="edgeStyle=orthogonalEdgeStyle;rounded=0;orthogonalLoop=1;jettySize=auto;html=1;" parent="1" source="SLpwjg63hdyZRQU6lq9K-2" target="SLpwjg63hdyZRQU6lq9K-10" edge="1">
          <mxGeometry relative="1" as="geometry" />
        </mxCell>
        <mxCell id="SLpwjg63hdyZRQU6lq9K-2" value="2. Xử lý&lt;div&gt;đặc trưng&lt;/div&gt;" style="rounded=1;whiteSpace=wrap;html=1;fillColor=#ffe6cc;strokeColor=#d79b00;fontFamily=SVN-Segoe UI;" parent="1" vertex="1">
          <mxGeometry x="249.3" y="-1010" width="60" height="40" as="geometry" />
        </mxCell>
        <mxCell id="SLpwjg63hdyZRQU6lq9K-25" style="edgeStyle=orthogonalEdgeStyle;rounded=0;orthogonalLoop=1;jettySize=auto;html=1;" parent="1" source="SLpwjg63hdyZRQU6lq9K-10" target="SLpwjg63hdyZRQU6lq9K-16" edge="1">
          <mxGeometry relative="1" as="geometry" />
        </mxCell>
        <mxCell id="SLpwjg63hdyZRQU6lq9K-10" value="&lt;b&gt;3. Trích xuất&lt;/b&gt;&lt;div&gt;&lt;b&gt;đặc trưng&lt;/b&gt;&lt;/div&gt;" style="rounded=1;whiteSpace=wrap;html=1;fillColor=#dae8fc;strokeColor=#6c8ebf;fontFamily=SVN-Segoe UI;" parent="1" vertex="1">
          <mxGeometry x="339.3" y="-1010" width="69.9" height="40" as="geometry" />
        </mxCell>
        <mxCell id="SLpwjg63hdyZRQU6lq9K-27" style="edgeStyle=orthogonalEdgeStyle;rounded=0;orthogonalLoop=1;jettySize=auto;html=1;entryX=0;entryY=0.5;entryDx=0;entryDy=0;" parent="1" source="SLpwjg63hdyZRQU6lq9K-15" target="SLpwjg63hdyZRQU6lq9K-17" edge="1">
          <mxGeometry relative="1" as="geometry" />
        </mxCell>
        <mxCell id="SLpwjg63hdyZRQU6lq9K-15" value="5. Kết hợp&lt;div&gt;đặc trưng&lt;/div&gt;" style="rounded=1;whiteSpace=wrap;html=1;fillColor=#f8cecc;strokeColor=#b85450;fontFamily=SVN-Segoe UI;" parent="1" vertex="1">
          <mxGeometry x="529.2199999999999" y="-1010" width="70" height="40" as="geometry" />
        </mxCell>
        <mxCell id="SLpwjg63hdyZRQU6lq9K-36" style="edgeStyle=orthogonalEdgeStyle;rounded=0;orthogonalLoop=1;jettySize=auto;html=1;entryX=0;entryY=0.5;entryDx=0;entryDy=0;" parent="1" source="SLpwjg63hdyZRQU6lq9K-16" target="SLpwjg63hdyZRQU6lq9K-15" edge="1">
          <mxGeometry relative="1" as="geometry" />
        </mxCell>
        <mxCell id="SLpwjg63hdyZRQU6lq9K-16" value="&lt;b&gt;4. Mã hoá&lt;/b&gt;&lt;div&gt;&lt;b&gt;đặc trưng&lt;/b&gt;&lt;/div&gt;" style="rounded=1;whiteSpace=wrap;html=1;fillColor=#d5e8d4;strokeColor=#82b366;fontFamily=SVN-Segoe UI;" parent="1" vertex="1">
          <mxGeometry x="429.3" y="-1010" width="79.45" height="40" as="geometry" />
        </mxCell>
        <mxCell id="SLpwjg63hdyZRQU6lq9K-42" style="edgeStyle=orthogonalEdgeStyle;rounded=0;orthogonalLoop=1;jettySize=auto;html=1;entryX=0;entryY=0.5;entryDx=0;entryDy=0;" parent="1" source="SLpwjg63hdyZRQU6lq9K-17" edge="1">
          <mxGeometry relative="1" as="geometry">
            <mxPoint x="719.3" y="-990" as="targetPoint" />
          </mxGeometry>
        </mxCell>
        <mxCell id="SLpwjg63hdyZRQU6lq9K-17" value="&lt;b&gt;6. Giải mã&lt;/b&gt;&lt;div&gt;&lt;b&gt;đặc trưng&lt;/b&gt;&lt;/div&gt;" style="rounded=1;whiteSpace=wrap;html=1;fillColor=#d5e8d4;strokeColor=#82b366;fontFamily=SVN-Segoe UI;" parent="1" vertex="1">
          <mxGeometry x="619.2199999999999" y="-1010" width="80" height="40" as="geometry" />
        </mxCell>
        <mxCell id="SLpwjg63hdyZRQU6lq9K-28" value="$$\text{Model}_\theta$$" style="rounded=1;whiteSpace=wrap;html=1;fillColor=#f5f5f5;strokeColor=#666666;fontFamily=Segoe UI;fontStyle=1;align=center;spacingLeft=14;fontColor=#333333;arcSize=50;" parent="1" vertex="1">
          <mxGeometry x="409.3" y="-1040" width="181" height="20" as="geometry" />
        </mxCell>
        <mxCell id="SLpwjg63hdyZRQU6lq9K-40" style="edgeStyle=orthogonalEdgeStyle;rounded=0;orthogonalLoop=1;jettySize=auto;html=1;entryX=0;entryY=0.5;entryDx=0;entryDy=0;" parent="1" target="SLpwjg63hdyZRQU6lq9K-1" edge="1">
          <mxGeometry relative="1" as="geometry">
            <mxPoint x="147.2999999999999" y="-990" as="sourcePoint" />
          </mxGeometry>
        </mxCell>
        <mxCell id="SLpwjg63hdyZRQU6lq9K-45" value="Data" style="shape=cylinder3;whiteSpace=wrap;html=1;boundedLbl=1;backgroundOutline=1;size=8.25000000000017;" parent="1" vertex="1">
          <mxGeometry x="110" y="-1020" width="40" height="50" as="geometry" />
        </mxCell>
        <mxCell id="3hiLGepuwi-zIb3yEwfn-1" value="&lt;b&gt;7. Kết xuất&lt;/b&gt;" style="rounded=1;whiteSpace=wrap;html=1;fillColor=#fff2cc;strokeColor=#d6b656;fontFamily=SVN-Segoe UI;" parent="1" vertex="1">
          <mxGeometry x="720" y="-1010" width="70" height="40" as="geometry" />
        </mxCell>
      </root>
    </mxGraphModel>
  </diagram>
</mxfile>
